<svg xmlns="http://www.w3.org/2000/svg" xmlns:xlink="http://www.w3.org/1999/xlink" margin="auto" width="60px"  height="60px" fill="#f78080">
<g stroke="none" stroke-width="1" fill="#f78080" fill-rule="evenodd">
<g fill-rule="nonzero" fill="#f78080">
<path d="M41.17285,41.16113 C41.18701,41.14862 41.19946,41.13413 41.21285,41.12079 L41.21566,41.11804 C41.23019,41.10357
 41.24557,41.09015 41.25875,41.07471 C41.44112,40.86847 41.61175,40.66523 41.78548,40.46112 C42.1163394,41.1383242 42.4842466,41.7967914
  42.88753,42.43353 C42.09041,42.2832633 41.2961,42.1011767 40.5046,41.88727 C40.73242,41.64392 40.96045,41.40039 41.17285,41.16113
   Z M45.59521,42.83661 C44.6203434,41.5668681 43.8140366,40.1762106 43.19641,38.69934 C44.6501895,36.7821632 45.9194664,34.7318414
    46.9873,32.57574 C47.2485837,35.7399068 48.6137981,38.711548 50.84423,40.97106 C50.74779,41.26214 50.65478,41.55358 50.54423,41.84313
     C50.48881,41.98791 50.42607,42.13079 50.36723,42.27483 C50.27641,42.49783 50.17741,42.71904 50.07841,42.94036 C49.53276,42.96801
      49.01225,42.98241 48.50004,42.98241 C48.25981,42.9746 48.02641,42.98241 47.7725,42.97313 C47.0481,42.95691 46.3208,42.907
       45.59521,42.83661 L45.59521,42.83661 Z M51.10681,27.74933 C51.11499,27.77673 51.12081,27.80475 51.12881,27.83215
        C51.29666,28.40765 51.43447,28.99139 51.55374,29.57977 C51.57718,29.69537 51.60281,29.81042 51.62454,29.92651
         C51.7344,30.5178767 51.8196467,31.1151467 51.88028,31.71832 C51.89249,31.83911 51.90103,31.96057
          51.91128,32.08178 C51.96438,32.71026 52.00003,33.34271 52.00003,33.98241 C52.00003,34.47533 
          51.97803,34.96541 51.94571,35.45385 C51.93631,35.59557 51.92337,35.73675 51.91116,35.87804
           C51.87916,36.2509067 51.8376567,36.6220833 51.78665,36.99157 C51.76907,37.11913 51.75418,37.24719
            51.7344,37.37426 C51.6643333,37.82342 51.5800233,38.2695067 51.48147,38.71252 C49.8325995,36.6632595 
            48.9324069,34.1126738 48.92971,31.48242 C48.9240127,29.4932882 49.4379764,27.5371654 50.42071,25.80774
             C50.44561,25.86945 50.46978,25.93134 50.4942,25.99316 C50.72144,26.57172 50.93091,27.15576 51.10681,27.74933
              L51.10681,27.74933 Z M27.78418,41.85449 L27.7738,41.86349 L27.7598,41.86862 C27.4141,42.07956
               27.06839,42.27145 26.72464,42.457 C22.9194517,44.4642345 18.7335255,45.6459104 14.44043,45.9248 
               C13.88281,45.96337 13.30664,45.98242 12.73043,45.98242 L12.5,45.98242 C12.187,45.98242 11.874,45.97842
                11.561,45.96742 C11.44064,45.78065 11.31662,45.59553 11.20016,45.40718 L11.18356,45.38081 
                L11.17868,45.37349 C11.06833,45.1899 10.95798,45.00581 10.85056,44.80949 C10.3548284,43.9331389
                 9.91996536,43.0237258 9.54905,42.08769 C9.50742,41.98607 9.47044,41.88328 9.43259,41.78013
                  C10.4502248,41.9074818 11.4744541,41.9750279 12.5,41.98242 C12.66211,41.98242 12.83691,41.98142 12.94238,41.97265 C13.768387,41.9628209 14.5933537,41.9108333 15.41406,41.81689 C17.1000424,41.63608 18.7640435,41.2891827 20.38183,40.78125 L20.42773,40.76416 C21.13673,40.54102 21.82128,40.29248 22.45117,40.03125 L22.45517,40.02954 L22.45749,40.02854 C24.1607868,39.3449672 25.7839499,38.4765925 27.29785,37.439 C27.60644,37.23734 27.89355,37.03519 28.18457,36.81693 C28.72827,36.41483 29.21313,36.01737 29.67432,35.61966 C29.8667,35.4556 30.05567,35.28812 30.24341,35.11874 C30.27649,35.08804 30.31494,35.05764 30.34766,35.02688 C30.65137,34.75442 30.94532,34.4717 31.22657,34.18997 C31.25757,34.15903 31.28357,34.12845 31.31422,34.0975 C31.53639,33.87338 31.75122,33.64236 31.96559,33.41024 C32.02101,33.34994 32.08327,33.2886 32.13771,33.22854 C32.31154,33.04348 32.47462,32.85891 32.61134,32.69436 C32.66871,32.63082 32.71827,32.56088 32.77443,32.496 C32.95668,32.27963 33.13771,32.06271 33.31349,31.84024 C33.35975,31.78097 33.41139,31.72501 33.45704,31.66556 C33.49704,31.61966 33.53712,31.56937 33.5752,31.51956 C33.8711,31.1318 34.16626,30.73294 34.44458,30.32126 L34.45801,30.30326 L34.46021,30.29972 L34.46192,30.2974 L34.58204,30.11722 C34.59767,30.09427 34.61134,30.07083 34.62504,30.04642 C34.73637,29.8848 34.84086,29.72269 34.94438,29.55277 L35.01567,29.44632 C35.0761564,29.3571159 35.1303254,29.2637879 35.17778,29.16702 C35.21318,29.1116 35.24321,29.0538 35.27739,28.99807 C35.35478,28.868 35.43266,28.73861 35.50761,28.60738 L35.51371,28.59719 C35.55082,28.54153 35.58793,28.47903 35.6309,28.40432 C35.72734,28.23299 35.80497,28.05483 35.89738,27.88088 C36.07838,27.54006 36.25638,27.19826 36.42216,26.85042 C36.45439,26.78169 36.49516,26.71413 36.52641,26.64552 C36.68071,26.31398 36.82621,25.98341 36.9727,25.63722 L36.98381,25.60701 C37.24809,24.96938 37.48357,24.32088 37.69707,23.66501 C37.76567,23.45487 37.82231,23.24191 37.88555,23.03031 C38.01946,22.58079 38.14455,22.12913 38.25445,21.67283 C38.31573,21.41892 38.37225,21.16435 38.42584,20.90867 C38.52057,20.45767 38.60084,20.00388 38.67193,19.54767 C38.70733,19.31891 38.74774,19.09143 38.77728,18.86151 C38.86528,18.17883 38.93428,17.49292 38.96881,16.80231 L38.96881,16.80131 C38.99029,16.36531 39.00006,15.92924 39.00006,15.48246 C39.00006,14.95652 38.98224,14.42405 38.94867,13.88883 C39.30573,14.04838 39.66217,14.21256 40.01373,14.39261 L40.01519,14.39304 C40.30804,14.54429 40.59019,14.69455 40.87798,14.86332 C41.6088331,15.2775747 42.314198,15.7352654 42.99028,16.23393 C42.9854,16.35307 42.97856,16.47514 42.96977,16.60307 C42.9185843,18.2175351 42.7343669,19.825031 42.41899,21.40922 C41.9228732,23.9285932 41.1066864,26.3741998 39.99028,28.68656 C39.1987753,30.3247488 38.2593279,31.8872366 37.18364,33.35456 C36.6396024,34.1194809 36.053409,34.8535263 35.42778,35.55329 C34.8643,36.19636 34.28032,36.8072 33.66606,37.39216 C33.1327031,37.9279158 32.5727357,38.436505 31.98828,38.916 C30.6764749,40.0177719 29.2696045,41.0011154 27.78418,41.85449 L27.78418,41.85449 Z M11.89111,8.48724 L17.03833,13.78024 C16.98206,13.81656 16.92017,13.85672 16.86157,13.89517 C16.81787,13.92441 16.77221,13.95205 16.72851,13.98147 L16.52966,14.11422 L16.52636,14.11622 L16.52416,14.11787 C16.18749,14.34887 15.8767,14.57405 15.58031,14.7975 L10.5056,9.87239 L11.89111,8.48724 Z M26.72021,12.2323 C27.12329,12.17218 27.53063,12.1393 27.93737,12.10144 C28.2235,12.07477 28.50768,12.03544 28.79491,12.0199 C29.24242,11.99567 29.69066,12.00257 30.13891,12.0055 C30.38622,12.00715 30.63378,11.99299 30.88073,12.00294 C31.00878,12.00813 31.13488,12.02894 31.26273,12.03633 C29.0579774,15.3241735 27.4338184,18.9659995 26.46097,22.80324 C26.1169645,24.1294337 25.8560409,25.4757993 25.67972,26.83449 C25.62052,27.2563 25.57108,27.67604 25.5314,28.08785 C25.49148,28.50216 25.46145,28.9114 25.4414,29.31252 L25.44189,29.3163 C25.39331,29.98555 25.37011,30.69362 25.37011,31.48244 C25.37011,31.78762 25.37682,32.0688 25.38329,32.35091 C25.12499,32.05269 24.86815,31.75136 24.61329,31.43068 C24.2126233,30.9262267 23.82916,30.4108267 23.4629,29.88448 C23.34376,29.71389 23.23707,29.5364 23.12171,29.36373 C22.8816,29.00436 22.6399,28.64583 22.4159,28.27779 C22.28736,28.06667 22.17237,27.84896 22.04908,27.63515 C21.8545,27.29702 21.65675,26.96041 21.47559,26.61586 C21.35401,26.38435 21.24559,26.14717 21.13013,25.91292 C20.98767,25.62392 20.84449,25.33534 20.71167,25.04238 C20.77759,24.63851 20.85291,24.23922 20.93018,23.84072 C20.97118,23.62862 21.00562,23.41272 21.04981,23.2026 C21.18787,22.54604 21.33981,21.89834 21.50781,21.2656 C21.84181,19.98484 22.23633,18.73142 22.67871,17.53806 C23.3024964,15.8421623 24.0412722,14.1908038 24.88989,12.59549 C25.20703,12.51981 25.52807,12.45816 25.84961,12.3967 C26.13977,12.34137 26.42712,12.276 26.72021,12.2323 Z M36.79345,18.61011 C36.76684,18.81769 36.73045,19.02332 36.69836,19.22986 C36.6322,19.65759 36.55636,20.08331 36.46777,20.50617 C36.41919,20.73694 36.36816,20.96705 36.31311,21.19623 C36.2102,21.6239 36.09326,22.04791 35.96728,22.46955 C35.91052,22.65955 35.85937,22.8512 35.79809,23.03974 C35.60009,23.64698 35.38309,24.24866 35.13696,24.84089 C34.9768,25.22749 34.80005,25.60737 34.61987,25.98567 C34.4851,26.27467 34.33081,26.56495 34.18017,26.85457 C34.0498,27.10231 33.92199,27.35115 33.78308,27.59468 L33.77441,27.60792 C33.69604,27.75776 33.60791,27.89955 33.51782,28.04192 C33.28982,28.42247 33.05882,28.80144 32.80957,29.17022 L32.80078,29.18359 L32.80017,29.18444 C32.44311,29.70769 32.06225,30.21026 31.66968,30.70208 C31.58191,30.81353 31.4895,30.9262 31.39527,31.03908 C31.11548,31.37746 30.82044,31.70156 30.52369,32.02394 C30.31397,32.25282 30.10255,32.47902 29.87977,32.70375 C29.5640967,33.0216233 29.2398367,33.3307867 28.90699,33.63124 C28.73463,33.79097 28.54993,33.94868 28.36671,34.10658 C28.12794,34.30995 27.87916,34.50203 27.63234,34.69658 L27.52321,34.59483 C27.49147,34.26225 27.45912,33.93119 27.43752,33.58098 C27.3926,32.94328 27.37014,32.25676 27.37014,31.48235 C27.37014,30.73235 27.3926,30.06243 27.43948,29.41204 C27.47659,28.66936 27.55081,27.89544 27.66214,27.09954 C27.8285103,25.8183329 28.0747565,24.5487704 28.39944,23.29827 C29.4031489,19.3396265 31.1403623,15.6043307 33.521,12.28607 C33.75318,12.32287 33.98609,12.36607 34.21936,12.41138 C34.5459,12.47473 34.87207,12.53632 35.19983,12.61615 C35.52954,12.69653 35.85962,12.79498 36.18983,12.89185 C36.41993,12.95935 36.64967,13.02885 36.87953,13.10431 C36.95923,13.904 37,14.7016 37,15.48242 C37,15.89599 36.99023,16.2998 36.9707,16.70263 C36.93872,17.343 36.87476,17.97821 36.79346,18.61011 L36.79345,18.61011 Z M19.238,14.78906 L19.27462,14.76892 C19.77535,14.4892 20.28829,14.23334 20.80904,13.99392 C20.84615,13.97646 20.88228,13.95803 20.91939,13.94058 L20.92183,13.93942 L20.9294,13.936 C20.95919,13.92208 20.98946,13.91085 21.01924,13.89712 C21.42952,13.71371 21.84981,13.55221 22.27144,13.39407 C21.73944,14.51773 21.23775,15.66372 20.80269,16.84469 C20.33785,18.09811 19.92378,19.415 19.5732,20.75631 C19.50386,21.01803 19.43746,21.2817 19.37203,21.54781 C18.7568298,19.5663225 18.3472804,17.5267587 18.14986,15.46138 C18.5094,15.23126 18.86694,14.99738 19.238,14.78906 Z M14.7839,18.1037 C15.2195667,17.6823667 15.6751333,17.2779667 16.1506,16.8905 L16.18405,16.86438 C16.21481,16.83938 16.2485,16.81799 16.27951,16.79315 C16.685372,19.8252337 17.518427,22.7845947 18.75388,25.58315 L18.75488,25.58638 C19.8777042,28.1223834 21.320057,30.5044767 23.04688,32.67476 L23.04981,32.67818 C23.23975,32.91689 23.43238,33.13674 23.62366,33.36348 C23.76612,33.53248 23.9076,33.71138 24.05103,33.87392 C24.06934,33.89467 24.08887,33.91353 24.1073,33.93416 C24.42358,34.29024 24.74194,34.63393 25.06543,34.96187 C25.23731,35.14766 25.42456,35.33357 25.60889,35.51955 C25.6305,35.71041 25.65479,35.90004 25.67945,36.08937 C24.6131829,36.789512 23.4909699,37.400491 22.32423,37.91609 C22.28123,37.87044 22.24171,37.83357 22.19823,37.7856 C21.54686,37.11568 20.93651,36.43355 20.37401,35.74703 L20.23436,35.57955 C17.2419305,31.9312047 14.9899163,27.7341624 13.60448,23.22355 C13.30468,22.26536 13.05114,21.26505 12.83373,20.25055 C13.4304594,19.4956087 14.0778681,18.7821474 14.77147,18.11511 L14.7839,18.1037 Z M18.69039,36.85059 L18.83687,37.02637 C19.24776,37.52759 19.69234,38.02661 20.14644,38.51776 C20.20244,38.57843 20.24996,38.63965 20.3066,38.70019 C20.13668,38.75781 19.9648067,38.81381 19.79098,38.86819 C19.7621396,38.876984 19.733769,38.8872508 19.70598,38.89895 C18.23605,39.3542732 16.7253822,39.6657948 15.19524,39.82913 C14.73503,39.88241 14.25624,39.91613 13.76555,39.94082 C13.2605254,37.1495685 13.0043361,34.3189876 13,31.48242 C13,30.23102 13.05188,28.98218 13.14807,27.74261 C14.5636252,31.021237 16.4290048,34.0866892 18.69043,36.85059 L18.69039,36.85059 Z M49.49439,9.87281 L44.41492,14.81043 C43.93665,14.44904 43.44947,14.112 42.95667,13.79474 L48.10967,8.48804 L49.49439,9.87281 Z M54.45899,0.69481 C55.2505827,-0.0600669832 56.4955273,-0.0600669832 57.28712,0.69481 C57.662283,1.06987197 57.8730559,1.57862582 57.8730559,2.109115 C57.8730559,2.63960418 57.662283,3.14835803 57.28712,3.52342 L51.63087,9.18065 L51.62987,9.17965 L51.62694,9.17526 L48.80664,6.35547 L48.80237,6.35266 L48.80176,6.35205 L54.45899,0.69481 Z M2.71289,3.52344 C1.94059753,2.7409838 1.94465626,1.48187645 2.72197711,0.704415424 C3.49929796,-0.0730456046 4.75840456,-0.0773313668 5.541,0.69482 L11.199,6.35082 L11.19338,6.35546 L8.373,9.17529 L8.37007,9.17968 L8.36907,9.18068 L2.71289,3.52344 Z M11.29773,22.41724 C11.40356,22.81293 11.51282,23.20569 11.63037,23.59064 C10.7547672,29.0128761 10.7915709,34.5433274 11.73926,39.95343 C10.7457717,39.9294485 9.75479425,39.8426653 8.77226,39.6936 C8.72416,39.51568 8.67607,39.33783 8.63237,39.15887 C8.58061,38.94671 8.52751,38.73487 8.48222,38.52136 C8.41972,38.22668 8.36845,37.92993 8.31816,37.63293 C8.28374,37.42962 8.24516,37.22699 8.2166,37.0227 C8.16997,36.69049 8.13774,36.3562 8.10649,36.02178
                   C8.09062,35.85078 8.06755,35.68059 8.05571,35.50908 C8.02026,35.00177 8,34.4928 8,33.98242 C7.98901086,29.8938425 9.1320591,25.8851581 11.29773,22.41724 L11.29773,22.41724 Z M13.04688,47.9718 C13.56238,47.9658 14.07911,47.9544 14.57422,47.92041 C19.1497669,47.6222891 23.6108937,46.3619179 27.666,44.22168 C28.042,44.01849 28.40819,43.81397 28.77464,43.59155 L28.77586,43.59112 L28.78465,43.58587 L28.80076,43.57665 L28.80247,43.57506 C30.380313,42.6669516 31.8750907,41.6216111 33.26947,40.45116 C33.8966481,39.9370066 34.4973526,39.3913827 35.06927,38.81639 C35.70208,38.21385 36.32904,37.55955 36.92669,36.87739 C37.5958746,36.1284398 38.2231353,35.343061 38.8056,34.52485 C39.9490017,32.9630537 40.9479201,31.3004558 41.79,29.55762 C42.9813968,27.0914939 43.8524003,24.4830807 44.3818,21.7959 C44.6343811,20.4784298 44.8029345,19.1462321 44.88644,17.80737 C45.12374,18.02537 45.363,18.23999 45.59274,18.46972 C46.652946,19.5336216 47.599761,20.704784 48.41794,21.96435 C47.3931633,27.6867555 45.0077898,33.0789648 41.46286,37.68652 L41.26071,37.94824 C40.82907,38.50244 40.35055,39.07959 39.83493,39.66553 C39.82293,39.67653 39.81198,39.68897 39.80026,39.70044 L39.78744,39.71326 C39.77499,39.72589 39.76205,39.73761 39.74996,39.75098 C39.19527,40.3794 38.57906,41.02881 37.92476,41.67383 C37.28218,42.29541 36.67769,42.83692 36.05562,43.34571 C34.9832681,44.268104 33.8554953,45.1240358 32.67862,45.90871 C31.82901,46.47121 31.05069,46.94435 30.2919,47.35988 L30.29105,47.36031 L30.29093,47.36037 L30.29093,47.36043 C28.2401809,48.5094495 26.0817494,49.4547015 23.84659,50.18263 C21.613923,50.9182328 19.3140015,51.4313079 16.98038,51.71437 C15.518725,50.635222 14.1973612,49.3779965 13.04688,47.9718 Z M43.05372,51.67969 C42.57227,52.03736 42.07704,52.37128 41.57166,52.68628 C41.40357,52.79108 41.22828,52.88184 41.05774,52.98181 C40.7146,53.18298 40.37122,53.38381 40.01831,53.56537 C39.81177,53.67169 39.59888,53.76447 39.38904,53.86402 C39.06226,54.01911 38.73535,54.1739 38.40112,54.31238 C38.17112,54.40772 37.93628,54.49121 37.70288,54.57862 C37.4758267,54.6637 37.2470667,54.7447533 37.0166,54.82178 C35.1526004,52.9476534 33.5232299,50.8539769 32.16431,48.58678 C32.53955,48.36449 32.92931,48.12212 33.32764,47.86583 C36.7948718,49.3676028 40.4693359,50.336228 44.22632,50.73883 C43.83984,51.06763 43.45068,51.38971 43.05371,51.67969 L43.05372,51.67969 Z M25.28149,55.471 C25.1416,55.44024 25.00415,55.39989 24.86499,55.36645 C24.55005,55.29064 24.23486,55.21575 23.92358,55.12603 C23.80371,55.09155 23.68652,55.04903 23.56738,55.0125 C23.23889,54.91173 22.91064,54.81005 22.58691,54.6939 C22.48657,54.65795 22.38891,54.61547 22.28906,54.57812 C21.95006,54.45086 21.61206,54.32073 21.27906,54.17663 C21.18775,54.1372 21.09925,54.0921 21.00855,54.05151 C20.67396,53.90136 20.34083,53.74719 20.01319,53.58014 C19.90674,53.52576 19.80311,53.46545 19.69739,53.4093 C19.6499,53.38415 19.60352,53.35657 19.55639,53.33105 C20.9517332,53.0723738 22.3312396,52.7345686 23.68823,52.31927 C24.3172567,53.4190633 24.9993033,54.4980033 25.73437,55.55609 C25.58374,55.52625 25.4314,55.504 25.28149,55.471 Z M28.4602,55.91491 C27.4293128,54.5610719 26.4819189,53.1456466 25.62329,51.67651 C27.2680917,51.0807184 28.8697309,50.3719149 30.41675,49.55517 C31.6844362,51.6713489 33.1752039,53.645616 34.86353,55.44417 C33.2673487,55.8035015 31.6361269,55.9840299 30,55.98242 C29.47778,55.98242 28.96692,55.9502 28.46021,55.91492 L28.4602,55.91491 Z M46.75366,48.22912 C46.67712,48.31912 46.59595,48.40722 46.51733,48.49645 C46.39526,48.63482 46.26879,48.77105 46.14221,48.90728 C44.1770126,48.782024 42.2251467,48.4982041 40.30566,48.05859 C38.5952601,47.6626034 36.9151991,47.1454346 35.2782,46.511 C36.00293,45.97462 36.70252,45.42988 37.34278,44.87648 C37.84571,44.46492 38.3556,44.00819 38.88013,43.51698 C40.4475125,44.0031343 42.0488413,44.372193 43.6709,44.62111 C43.6875,44.62355 43.70508,44.6255 43.72363,44.62746 C44.13672,44.68801 44.5498,44.74758 44.94824,44.78615 C45.86324,44.88915 46.79883,44.95168 47.71094,44.9717 C47.97364,44.98195 48.23731,44.98244 48.5,44.98244 C48.67944,44.98244 48.86426,44.97579 49.04578,44.97261 C48.96143,45.11702 48.8855,45.25761 48.79493,45.40529 C48.5175967,45.86281 48.2216967,46.31089 47.90723,46.74953 L47.9065,46.75099 L47.90528,46.75299 C47.76075,46.95514 47.61622,47.1485 47.47169,47.33942 C47.24512,47.639 47.00366,47.93555 46.75366,48.22913 L46.75366,48.22912 Z" style="&#10;"/>
                   <path d="M11.42656,47.96943 L1.70703,57.68943 C1.31590939,58.0761117 0.68592208,58.0743129 0.297015975,57.6854041 C-0.0918901298,57.2964952 -0.0936844477,56.6665079 0.293,56.27539 L10.31253,46.25539"/>
                   <path d="M49.6875,46.25537 L59.70703,56.27537 C59.9604988,56.527788 60.0598132,56.8963835 59.9674727,57.2419765 C59.8751321,57.5875695 59.6052054,57.8575057 59.2596157,57.9498585 C58.914026,58.0422113 58.545427,57.9429099 58.293,57.68945 L48.57347,47.96945"/></g></g>
                   </svg>