<svg xmlns="http://www.w3.org/2000/svg" xmlns:xlink="http://www.w3.org/1999/xlink" version="1.1"  xml:space="preserve">
    <g>
        <path d="M57.777,32.638c-1.701-1.158-3.574-2.083-5.582-2.704l-0.154,2.062c1.563,0.526,3.036,1.246,4.389,2.137L57.777,32.638z"/>
        <path d="M51.796,35.264c1.113,0.161,2.132,0.375,3.061,0.615l1.533-1.701c-1.289-0.388-2.772-0.732-4.44-0.964L51.796,35.264z"/>
        <path d="M31.308,62.003C28.624,58.729,27,54.555,27,50c0-2.414,0.471-4.716,1.295-6.842c0.595,7.67,2.998,13.183,5.781,17.082
            l-2.531,2.806c0,0-4.63,5.926-4.284,6.238c0.395,0.356,5.747-4.876,5.747-4.876l2.313-2.563c2.456,2.946,5.037,4.775,6.847,5.809
            c-0.814,0.321-1.37,0.5-1.56,0.557c-2.461-0.73-4.715-1.946-6.65-3.535l-1.329,1.474c3.479,2.879,7.894,4.669,12.719,4.818
            l0.149-1.992c-0.398-0.012-0.795-0.025-1.187-0.06c0.078-0.035,0.161-0.075,0.242-0.111c0.003,0.001,0.016,0.005,0.017,0.006
            l0.006-0.017c0.58-0.266,1.229-0.589,1.907-0.946l-0.12,1.567c0,0-0.043,7.519,0.421,7.555c0.529,0.04,1.57-7.372,1.57-7.372
            l0.226-2.929c0.463-0.28,0.936-0.576,1.418-0.896L50,65.773l0.001-0.003c5.205-3.445,11.384-9.264,14.764-18.607
            c0.132,0.874,0.219,1.762,0.227,2.67c-3.513,9.495-11.047,14.916-15.6,17.446l-0.26,3.461c1.145-0.172,2.255-0.449,3.332-0.798
            c1.929,1.25,4.263,2.084,6.71,2.084c1.575,0,3.193-0.342,4.773-1.131c5.478-2.738,11.99-4.541,13.846-2.688l1.414-1.414
            c-3.658-3.659-14.098,1.285-16.154,2.313c-2.991,1.498-5.929,0.975-8.188-0.11C62.021,65.651,67,58.408,67,50
            c0-5.863-2.417-11.17-6.306-14.982l-1.969,2.184c1.182,0.517,1.955,0.975,2.271,1.175c1.195,1.538,2.153,3.262,2.834,5.124
            c-0.089,0.331-0.189,0.649-0.286,0.972c-1.553-1.274-4.355-3.216-8.329-4.671l8.105-8.98c0.914,0.306,1.96,0.068,2.646-0.693 
            c0.924-1.024,0.843-2.605-0.182-3.53c-1.024-0.926-2.604-0.844-3.53,0.181c-0.687,0.762-0.816,1.826-0.421,2.704l-8.703,9.645
            c-0.76-0.219-1.556-0.415-2.386-0.586l1.083-14.052c0.911-0.316,1.594-1.144,1.673-2.166c0.106-1.376-0.926-2.577-2.303-2.684
            c-1.374-0.107-2.576,0.924-2.684,2.301c-0.077,1.021,0.47,1.943,1.32,2.396l-1.067,13.862c-3.855-0.553-8.356-0.52-13.512,0.636
            c-0.006-0.556,0.002-1.129,0.016-1.709c4.851-1.704,9.146-2.239,12.778-2.165l0.153-2.042c-3.668-0.077-7.972,0.438-12.836,2.055
            c0.016-0.247,0.028-0.491,0.048-0.742C38.442,32.192,42.084,31,46,31c0.792,0,1.569,0.062,2.336,0.156l0.149-1.995
            C47.669,29.064,46.843,29,46,29c-11.579,0-21,9.42-21,21c0,5.146,1.874,9.849,4.959,13.499L31.308,62.003z M52.771,67.71
            c-0.021-0.017-0.044-0.033-0.065-0.049c3.47-2.228,7.702-5.7,10.989-10.79C61.752,61.854,57.765,65.794,52.771,67.71z
            M45.619,51.097c1.111,0.256,2.18,0.552,3.197,0.871c-1.179,4.759-3.516,7.561-4.557,8.616c-0.303-0.239-0.607-0.488-0.914-0.761
            C43.684,58.581,44.573,55.267,45.619,51.097z M41.714,58.193c-0.715-0.794-1.416-1.694-2.077-2.715
            c0.008-0.628,0.104-2.832,1.024-5.179c1.019,0.092,2.02,0.227,2.996,0.399C42.854,53.897,42.146,56.58,41.714,58.193z
            M50.719,52.609c0.89,0.322,1.727,0.653,2.5,0.981c-0.839,4.069-4.209,7.92-5.438,9.215c-0.568-0.277-1.198-0.622-1.867-1.048
            C47.201,60.397,49.494,57.433,50.719,52.609z M49.977,63.371c1.588-1.797,4.189-5.188,5.105-8.944
            c1.134,0.538,2.061,1.028,2.725,1.4C55.341,59.06,52.569,61.525,49.977,63.371z M58.985,54.188
            c-3.091-1.776-12.261-6.441-22.521-5.988c-0.228-0.84-0.428-1.725-0.597-2.655c13.097-1.19,22.057,4,24.805,5.867
            C60.139,52.389,59.575,53.314,58.985,54.188z M38.574,50.18c-0.271,0.788-0.466,1.548-0.604,2.24
            c-0.321-0.704-0.619-1.452-0.896-2.242C37.577,50.165,38.077,50.167,38.574,50.18z M62.865,46.537 
            c-0.39,1.071-0.818,2.091-1.279,3.066c-3.221-2.174-12.448-7.316-26.019-6.039c-0.107-0.863-0.191-1.758-0.244-2.694
            C50.766,37.273,60.369,44.362,62.865,46.537z M33.307,35.903c-0.882,19.732,9.548,26.804,14.35,28.999 
            c-1.144,0.695-2.209,1.263-3.154,1.722c-2.964-1.343-14.31-7.761-14.348-27.083C31.046,38.195,32.111,36.98,33.307,35.903z"/>
        </g>
</svg>